<?xml version="1.0" encoding="UTF-8"?>
<svg id="_레이어_1" xmlns="http://www.w3.org/2000/svg" version="1.1" viewBox="0 0 349 353.5">
  <!-- Generator: Adobe Illustrator 29.0.1, SVG Export Plug-In . SVG Version: 2.1.0 Build 192)  -->
  <defs>
    <style>
      .st0 {
        fill: #f04325;
      }

      .st1 {
        fill: none;
        stroke: #fff;
        stroke-width: 11.4px;
      }
    </style>
  </defs>
  <g>
    <path class="st0" d="M9.4,92.5c-8.1,74.6-5.1,139.8,28.3,201.7,29.7,55.2,77.9,66.4,129.1,31.2,37.9-26.1,68.5-62.5,95.9-102.3,16.2-23.4,15.7-23.8,32.1-1.8,8.1,10.6,16.4,20.9,26.4,30.5-9.4-75-7.7-149.6,11.9-225.9-53.1,50.7-111.2,85.6-179,104.8,16.5,11.7,32.5,14.1,47.6,18.9,9.8,3.1,13.8,7.9,4.4,18.7-8.8,10.2-16.6,21.8-26.2,30.9-42.3,40.3-81.1,37.5-112.9-8.7C40.6,152,28.9,105.7,23.8,56.2c-.3-3-1.8-5.9-4.2-7.4-4.8-3-6.8,3.6-7.2,9.7-.6,10.3-1.9,24.5-3.1,34h.1Z"/>
    <path class="st1" d="M9.4,92.5c-8.1,74.6-5.1,139.8,28.3,201.7,29.7,55.2,77.9,66.4,129.1,31.2,37.9-26.1,68.5-62.5,95.9-102.3,16.2-23.4,15.7-23.8,32.1-1.8,8.1,10.6,16.4,20.9,26.4,30.5-9.4-75-7.7-149.6,11.9-225.9-53.1,50.7-111.2,85.6-179,104.8,16.5,11.7,32.5,14.1,47.6,18.9,9.8,3.1,13.8,7.9,4.4,18.7-8.8,10.2-16.6,21.8-26.2,30.9-42.3,40.3-81.1,37.5-112.9-8.7C40.6,152,28.9,105.7,23.8,56.2c-.3-3-1.8-5.9-4.2-7.4-4.8-3-6.8,3.6-7.2,9.7-.6,10.3-1.9,24.5-3.1,34h.1Z"/>
  </g>
  <path d="M61.6,287.1c-.4.3-.9.3-1.3.3s-.8-.3-1-.6l1.2-.7c.2.2.3.3.4.2l.2-.2v-.2h-2.2c-.2,0-.3-.3-.5-.5-.2-.3-.2-.5-.2-.7,0-.3,0-.4.3-.7.2-.2.3-.4.7-.5.4-.3.9-.3,1.3-.3s.7.3,1,.6l-1.3.7-.2-.2h-.3v.3s.2,0,.3.2h1.8c.2,0,.3.3.5.4.2.3.2.4.2.7s0,.5-.3.7c-.2.3-.3.4-.7.6h.2-.1ZM65.2,284.9c-.3.2-.7.3-1.1.3s-.8,0-1.1-.3c-.3-.2-.6-.4-.9-.9-.2-.3-.3-.8-.3-1.1s0-.8.3-1.1c.2-.3.4-.6.9-.8.3-.2.7-.3,1.1-.3s.8,0,1.1.3c.3.2.6.4.9.9.2.3.3.8.3,1.1s0,.8-.3,1.1c-.2.3-.4.6-.8.8h0ZM64.7,283.8c.3-.2.3-.3.4-.5,0-.3,0-.4-.2-.7s-.3-.4-.5-.5h-.7c-.3.2-.3.3-.4.5,0,.3,0,.4.2.7s.3.4.5.5h.7ZM69.9,277.2l2.2,3.7-1.1.7-1.1-1.8.5,2.2-1,.6-1.7-1.6,1.1,1.8-1.1.7-2.2-3.7,1.5-.9,2.2,1.7-.5-2.7,1.4-.9h0l-.2.2h0ZM72.1,277.1l.3.4,1.1-.7.5.9-1.1.7.3.5,1.3-.8.5,1-2.5,1.5-2.2-3.7,2.5-1.5.5,1-1.3.8h0ZM77.5,277.8l-1.5-1h0l.8,1.3-1.1.7-2.2-3.7,1.7-1c.3-.2.6-.3.9-.3s.5,0,.7.2c.2,0,.4.3.5.5.2.3.2.5.2.8s-.2.5-.3.8l1.7,1-1.3.8h0ZM75.4,276l.4-.3s.2-.2.2-.3v-.3s-.2-.2-.3-.2h-.3l-.4.3.3.6h0v.2h.1ZM80.6,275.9c-.4.3-.9.3-1.3.3s-.8-.3-1-.6l1.2-.7c.2.2.3.3.4.2l.2-.2v-.2h-2.2c-.2,0-.3-.3-.5-.5-.2-.3-.2-.5-.2-.7,0-.3,0-.4.3-.7.2-.2.3-.4.7-.5.4-.3.9-.3,1.3-.3s.7.3,1,.6l-1.3.7-.2-.2h-.3v.3s.2,0,.3.2h1.8c.2,0,.3.3.5.4.2.3.2.4.2.7s0,.5-.3.7c-.2.3-.3.4-.7.6h.2,0ZM82,271.3l.3.4,1.1-.7.5.9-1.1.7.3.5,1.3-.8.5,1-2.5,1.5-2.2-3.7,2.5-1.5.5,1-1.3.8h0ZM86.1,267.7l.5,1-1,.6,1.7,2.8-1.1.7-1.7-2.8-1,.6-.5-1,3.1-1.8h0ZM91.8,264.4l2.2,3.7-1.1.7-1.1-1.8.5,2.2-1,.6-1.7-1.6,1.1,1.8-1.1.7-2.2-3.7,1.5-.9,2.2,1.7-.5-2.7,1.4-.9h0l-.2.2h0ZM96.6,265.7l-1.2.7.2.7-1.2.7-.8-4.5,1.4-.8,3.6,3-1.2.7-.5-.4h-.3ZM95.8,265.1l-1-.9.3,1.2.7-.4h0ZM97.6,261l1.2,2.1c0,.2.3.3.3.3h.4c.2,0,.3-.3.3-.3v-.5l-1.2-2.1,1.1-.7,1.2,2.1c.2.3.3.7.3,1s0,.6-.3,1c-.2.3-.4.5-.8.7-.3.2-.6.3-1,.3s-.6,0-.9-.3-.5-.4-.8-.8l-1.2-2.1,1.1-.7h.3ZM103.2,259.3h-.6c-.3.2-.3.3-.4.5,0,.2,0,.4.2.7s.3.4.6.5c.3,0,.4,0,.8-.2.3-.2.4-.4.4-.7l-1,.5-.5-.9,1.9-1.1.7,1.1c0,.3,0,.8-.3,1.1-.2.3-.4.7-.9,1-.3.3-.8.3-1.1.3s-.7,0-1-.3c-.3-.2-.6-.5-.8-.9s-.3-.8-.3-1.1,0-.7.3-1c.2-.3.4-.6.9-.9s1-.4,1.4-.3c.4,0,.8.3,1.1.6l-1.2.7v.2l-.2.2h0ZM107.7,255l2.2,3.7-1.1.7-.9-1.5-1.1.6.9,1.5-1.1.7-2.2-3.7,1.1-.7.8,1.3,1.1-.6-.8-1.3,1.1-.7ZM112.4,256.5l-1.2.7.2.7-1.2.7-.8-4.5,1.4-.8,3.6,3-1.2.7-.5-.4h-.3ZM111.7,255.8l-1-.9.3,1.2.7-.4h0ZM116.8,249.7l2.2,3.7-1.1.7-1.1-1.8.5,2.2-1,.6-1.7-1.6,1.1,1.8-1.1.7-2.2-3.7,1.5-.9,2.2,1.7-.5-2.7,1.4-.9h0s-.2.2-.2.2Z"/>
  <path d="M117.1,295.2l2.7,7-2.2.9-1.3-3.6.3,3.9-1.9.7-2.4-3.1,1.3,3.6-2.3.9-2.7-7,2.7-1,3.2,3.7v-4.9l2.6-1h0ZM124.2,300.6c-.7.3-1.3.3-2,.3s-1.3-.3-1.8-.8-1-1-1.2-1.7c-.3-.7-.3-1.4-.3-2.1s.4-1.3.9-1.8,1-1,1.7-1.1c.7-.3,1.3-.3,2-.3s1.3.3,1.8.8,1,1,1.2,1.7c.3.7.3,1.4.3,2.1s-.3,1.3-.8,1.8-1,.9-1.7,1.1h0ZM123.4,298.6c.4-.2.7-.4.9-.8v-1.3c-.2-.5-.4-.8-.8-1-.3-.2-.8-.2-1.2,0s-.7.4-.9.8,0,.8,0,1.3c.2.5.4.8.8,1,.3.2.8.2,1.2,0ZM132.2,297.7c-.7.3-1.3.3-2,.3s-1.3-.3-1.8-.8-1-1-1.2-1.7c-.3-.7-.3-1.4-.3-2.1s.4-1.3.9-1.8c.5-.5,1-1,1.7-1.1.7-.3,1.3-.3,2-.3s1.3.3,1.8.8,1,1,1.2,1.7c.3.7.3,1.4.3,2.1s-.3,1.3-.8,1.8-1,.9-1.7,1.1h-.1ZM131.4,295.6c.4-.2.7-.4.9-.8v-1.3c-.2-.5-.4-.8-.8-1-.3-.2-.8-.2-1.2,0s-.7.4-.9.8,0,.8,0,1.3c.2.5.4.8.8,1,.3.2.8.2,1.2,0ZM143.4,293.3l-2.3.9-3.7-2.7,1.4,3.6-2.3.9-2.7-7,2.3-.9,3.7,2.7-1.4-3.7,2.3-.9,2.7,7h0ZM150.2,289.4l-2.3.9v1.2l-2.3.9v-8.1l2.4-1,5.3,6.1-2.3.9-.8-1h0ZM149.1,288l-1.4-1.7v2.2l1.4-.5h0ZM160.7,286.7l-2.3.9-3.7-2.7,1.4,3.6-2.3.9-2.7-7,2.3-.9,3.7,2.7-1.4-3.7,2.3-.9,2.7,7h0ZM161.9,278.1c.8-.3,1.5-.3,2.1-.3s1.3.3,1.7.8c.5.4.9,1,1.1,1.7s.3,1.3.3,2-.3,1.2-.8,1.7-1,1-1.7,1.2l-3,1.1-2.7-7,3-1.1h0ZM163.6,283.3c.5-.2.9-.5,1-.9s.2-.9,0-1.3c-.2-.5-.5-.9-.9-1-.4-.2-.9-.2-1.3,0l-.5.2,1.2,3.1.5-.2h0ZM125.8,312.2c-.9.3-1.7.4-2.3.2-.7-.2-1.2-.7-1.6-1.4l2.3-.9c.2.4.4.5.8.4,0,0,.2,0,.3-.2v-.3c0-.2-.2-.3-.4-.3h-2.3c-.3,0-.7-.2-1-.3-.3-.2-.6-.5-.8-1-.2-.4-.2-.9,0-1.3,0-.4.3-.8.7-1.1.3-.3.8-.6,1.3-.8.9-.3,1.7-.4,2.3-.2.7.2,1.1.7,1.5,1.4l-2.4.9c0-.2-.2-.3-.3-.3h-.3s-.2,0-.2.2v.3c0,.2.2.3.4.3h2.3c.3,0,.7.2,1,.3.3.2.5.5.7.9s.2.9,0,1.3c0,.4-.3.8-.6,1.1s-.8.6-1.3.9h0ZM128.8,302.8l2.7,7-2.3.9-2.7-7,2.3-.9ZM136.9,307.9l-2-1.3-.3,2.3-2.5,1,1-4.5-3.7-2.5,2.6-1,1.9,1.3.3-2.2,2.5-1-1,4.4,3.8,2.5-2.6,1h0ZM144.1,299.8c.2.4.3.9.2,1.3,0,.4-.3.9-.6,1.2s-.8.7-1.3.9l-.9.3.9,2.3-2.3.9-2.7-7,3.1-1.2c.9-.3,1.7-.3,2.3,0s1.1.8,1.4,1.5h0v-.2h0ZM141.4,301.5c.4-.2.6-.5.4-.9-.2-.4-.5-.5-1-.3l-.6.3.5,1.3.6-.3h.1ZM146.8,298l.3.9,2.2-.9.6,1.7-2.2.9.3,1,2.5-1,.7,1.7-4.7,1.8-2.7-7,4.7-1.8.7,1.7-2.5,1h0ZM158.9,299.4l-2.3.9-3.7-2.7,1.4,3.6-2.3.9-2.7-7,2.3-.9,3.7,2.7-1.4-3.7,2.3-.9,2.7,7h0ZM158.4,295.6c-.3-.7-.3-1.4-.3-2s.3-1.2.7-1.7,1-.9,1.7-1.1c.6-.3,1.2-.3,1.7-.3s1.1.2,1.6.5c.4.3.9.7,1.1,1.2l-2.3.9c-.2-.2-.4-.3-.7-.3h-.8c-.3.2-.6.4-.7.8s0,.8,0,1.2c.2.4.4.8.8,1,.3.2.7.3,1,0,.3,0,.4-.3.6-.4s.3-.4.3-.7l2.3-.9v1.7c-.2.5-.4,1-.8,1.4s-.9.7-1.5,1c-.7.3-1.4.3-2,.3s-1.2-.3-1.7-.8-.9-1-1.1-1.7h0ZM167.7,290l.3.9,2.2-.9.6,1.7-2.2.9.3,1,2.5-1,.7,1.7-4.7,1.8-2.7-7,4.7-1.8.7,1.7-2.5,1h0Z"/>
  <path d="M86.4,289.1l3.7-2.2,1,1.6-3.7,2.2-1-1.6ZM80.7,288l1.6-1,1.2,2c.5.9,1,1.7,1.2,2.7.3.9.5,1.8.6,2.7s0,1.7,0,2.6c-.2.8-.4,1.6-1,2.3l-2.2-.9c.4-.6.7-1.3.9-2s.3-1.4.2-2.2c0-.8-.2-1.5-.4-2.2s-.5-1.4-1-2.1l-1.2-2h.2,0ZM81.1,287.8l1.6-1,1.2,2c.3.6.8,1.2,1.3,1.8.5.5,1,1,1.7,1.4.6.4,1.2.7,1.9.9.7.2,1.4.3,2.1.2l-.3,2.3c-.9,0-1.7,0-2.4-.3s-1.5-.6-2.2-1.1-1.3-1.1-1.9-1.8c-.6-.7-1.1-1.5-1.7-2.3l-1.2-2h0ZM86.5,283.2l2-1.1,8.2,13.9-2,1.1-8.2-13.9ZM90.4,282.5l6.6-3.8,5.4,9.3-6.6,3.8-5.4-9.3ZM96,281.4l-2.7,1.6,3.6,6.2,2.7-1.6-3.6-6.2ZM98.8,275.9l2-1.1,8.2,13.9-2,1.1-8.2-13.9ZM98.7,282.5l3.7-2.2,1,1.6-3.7,2.2-1-1.6ZM110.9,268.9l2-1.1,5.4,9.3-2,1.1-5.4-9.3ZM112.2,279.7l1.7-1,.2.3c.3.6.6,1.3.7,2s0,1.4-.2,2.1-.5,1.4-1,2.1c-.4.7-1.1,1.3-1.9,2l-1.7-1.1c.7-.5,1.2-1,1.7-1.7.4-.5.7-1,.9-1.6.2-.5.3-1,.2-1.5,0-.4-.2-.9-.3-1.3l-.2-.3h0ZM112.7,279.4l1.7-1,.2.3c.3.3.5.7,1,1,.3.3.9.4,1.4.5s1.1,0,1.8,0,1.4-.3,2.3-.6l.2,2c-1,.3-1.8.6-2.7.7h-2.3c-.7-.2-1.3-.5-1.9-.9-.5-.4-1-1-1.4-1.6l-.2-.3h0ZM105.1,273.1l1.7-1,.8,1.3c.5.9.9,1.8,1,2.9.2,1,.2,1.9,0,2.9s-.7,1.8-1.4,2.7l-1.9-1c.4-.5.8-1.1,1-1.7s.3-1.1.3-1.7,0-1.1-.2-1.7-.3-1-.6-1.5l-.8-1.3h0ZM105.4,273l1.7-1,.8,1.3c.3.4.5.8,1,1.2s.8.6,1.3.9c.4.2,1,.3,1.6.4.6,0,1.2,0,1.9-.2v2.2c-.9.2-1.6.3-2.3.2-.7,0-1.4-.3-2-.6-.6-.3-1.2-.7-1.7-1.2s-1-1.1-1.3-1.7l-.8-1.3-.2-.2h0ZM121.4,274.8l9.6-5.7,2.8,4.7-9.6,5.6-2.8-4.7h0ZM130.1,271.9l-5.7,3.3,1,1.6,5.7-3.3-1-1.6ZM116.6,266.3l9.4-5.5,2.9,4.9-9.4,5.5s-2.9-4.9-2.9-4.9ZM124.9,263.4l-5.5,3.2,1,1.7,5.5-3.2-1-1.7ZM118.6,273.1l12.5-7.3,1,1.6-12.5,7.3s-1-1.6-1-1.6ZM122.9,268.6l2-1.1,1.2,2.1-2,1.1-1.2-2.1Z"/>
  <g>
    <path d="M186.8,236.6l-4.4,4.7,2.9,2.7c2.5-2.7,3.9-4.4,5.2-6.5l2.2,1.6c-1.4,2.5-3.2,4.5-6.5,7.9l-1.3,1.4-6.8-6.4,6.8-7.2,2,1.8ZM189.9,250.3l7.7-8.2-.7-.7-7.7,8.2-2-1.9,10.1-10.8,4.6,4.3-7.7,8.3.8.7,8.1-8.7,2,1.9-10.5,11.2-4.6-4.3ZM186.3,231.6l2.4-2.5,2.9,2.7,1.9-2.1,2,1.9-1.9,2.1,3,2.8-2.4,2.5-7.9-7.4Z"/>
    <path d="M204.5,233.8l-4.6-4.4,2.3-2.5,4.6,4.3c1.3-1.6,2.7-3.2,3.8-4.8l2,1.6c-2.5,3.8-5.8,7.4-8.4,10.2l-2.2-1.7c.8-.9,1.7-1.8,2.6-2.8ZM202.7,220.1c1.6,1.5,3.5,3.3,5.7,6.1l-2.5,2.3c-1.9-2.4-3.5-4-4.9-5.4l-5.5,5.9-2-1.9,7.8-8.4,1.4,1.3ZM200.8,216.1l2.4-2.5,6.3,5.9,1.9-2,2.1,2-1.9,2,7.6,7.1-2.4,2.5-16-15Z"/>
    <path d="M218,214.3c-4.2-4-4.8-8.4-1.7-11.6,2.5-2.7,5.9-2.9,8.2-1.2l-2.7,2.9c-1-.6-2.1-.3-2.9.6-1.5,1.6-.8,3.7,1.5,5.9h.1c-.6-1.7-.1-3.6,1.2-5.1,2.1-2.3,5.3-2.3,7.7-.1s2.6,6.2-.1,9.1c-2.6,2.8-6.6,3.8-11.2-.6ZM226.9,212.8c1.1-1.2,1-2.9-.2-4s-2.8-1.1-3.9.1c-1.1,1.1-1,2.9.1,3.9,1.2,1.1,2.9,1,4,0Z"/>
    <path d="M228.9,201.4l-4.3-4-.8.9-2-1.9,6.9-7.4,2,1.9-.9,1,4.1,3.8c.3-.4.7-.9,1-1.3l2,1.6c-1.8,2.9-4.8,6.1-6.7,8.2l-2.3-1.7,1.1-1.2ZM233.7,202l2.4-2.5,3.2,3,8.1-8.7,2,1.9-10.5,11.2-5.3-4.9ZM232,198l-4.2-4-.9,1,4.3,4c.3-.3.6-.7.9-1ZM231.4,192.2l1.2-1.3-4.1-3.9,2.2-2.3,11.3,10.6-2.2,2.3-5.2-4.9-1.2,1.3-2-1.8ZM245.2,192.4l-2.2,2.4-11.8-11.1,2.2-2.4,11.8,11.1Z"/>
    <path d="M246.9,191.1l13.7-14.6,2.1,1.9-13.7,14.6-2.1-1.9ZM255.6,172.5l1,3.1c-3.3,2.4-6.6,2.9-9.5,2.1,1,2.9.6,6.3-1.5,9.6l-3.1-.9c2.9-4.4,2-8.6-.2-10.7l-1.1-1,2.5-2.7,1.1,1c2.3,2.1,6.4,2.7,10.7-.6Z"/>
  </g>
</svg>