<?xml version="1.0" encoding="UTF-8"?>
<svg id="_레이어_1" xmlns="http://www.w3.org/2000/svg" version="1.1" viewBox="0 0 440 552.9">
  <!-- Generator: Adobe Illustrator 29.0.1, SVG Export Plug-In . SVG Version: 2.1.0 Build 192)  -->
  <defs>
    <style>
      .st0 {
        fill: #f04325;
      }

      .st1 {
        fill: none;
        stroke: #fff;
        stroke-width: 13.9px;
      }

      .st2 {
        font-family: Pretendard-ExtraBold-KSCpc-EUC-H, Pretendard;
        font-size: 38px;
        font-weight: 700;
      }
    </style>
  </defs>
  <g>
    <path class="st0" d="M153.6,282l-7-93.8L7.3,352.3l168.7,180.5-7.1-89,121.6,2.9s42.1,4,104.2-117.9l33.1-65.1s22.6-43.5-18.5-99.9L312.6,10.1l-143.3,74.3,123,197.2-138.6.4h-.1,0Z"/>
    <path class="st1" d="M153.6,282l-7-93.8L7.3,352.3l168.7,180.5-7.1-89,121.6,2.9s42.1,4,104.2-117.9l33.1-65.1s22.6-43.5-18.5-99.9L312.6,10.1l-143.3,74.3,123,197.2-138.6.4h-.1,0Z"/>
  </g>
  <path d="M129.6,416.6h-4.7l-5-7.6v7.6h-4.7v-15.1h4.7l5,7.7v-7.7h4.7v15.1ZM136.4,401.5v15.1h-4.7v-15.1h4.7ZM147.8,406.7c-.2-.3-.4-.5-.8-.7-.3-.2-.8-.3-1.2-.3-.9,0-1.6.3-2.1.9s-.7,1.4-.7,2.4.3,2.1.8,2.6,1.4.9,2.6.9,2-.4,2.6-1.3h-3.8v-3.4h7.7v4.7c-.7,1.1-1.6,2.1-2.7,2.9-1.2.8-2.6,1.2-4.4,1.2s-2.9-.3-4.1-1c-1.2-.7-2-1.6-2.7-2.7-.6-1.2-.9-2.5-.9-4s.3-2.8.9-4c.6-1.2,1.5-2.1,2.7-2.7,1.2-.7,2.5-1,4.1-1s3.6.5,4.8,1.4c1.3,1,2,2.2,2.2,3.9h-5v.2h0ZM168.6,401.5v15.1h-4.7v-5.9h-4.5v5.9h-4.7v-15.1h4.7v5.4h4.5v-5.4h4.7ZM182.6,401.5v3.8h-4v11.4h-4.7v-11.4h-4v-3.8h12.7ZM198.2,401.5v3.8h-5.9v2.1h4.3v3.6h-4.3v5.7h-4.7v-15.1h10.7-.1ZM204.5,413h4.6v3.6h-9.3v-15.1h4.7v11.5ZM215.3,401.5v15.1h-4.7v-15.1h4.7ZM226.7,406.7c-.2-.3-.4-.5-.8-.7-.3-.2-.8-.3-1.2-.3-.9,0-1.6.3-2.1.9s-.7,1.4-.7,2.4.3,2.1.8,2.6,1.4.9,2.6.9,2-.4,2.6-1.3h-3.8v-3.4h7.7v4.7c-.7,1.1-1.6,2.1-2.7,2.9-1.2.8-2.6,1.2-4.4,1.2s-2.9-.3-4.1-1c-1.2-.7-2-1.6-2.7-2.7-.6-1.2-.9-2.5-.9-4s.3-2.8.9-4c.6-1.2,1.5-2.1,2.7-2.7,1.2-.7,2.5-1,4.1-1s3.6.5,4.8,1.4c1.3,1,2,2.2,2.2,3.9h-5v.2h0ZM247.5,401.5v15.1h-4.7v-5.9h-4.5v5.9h-4.7v-15.1h4.7v5.4h4.5v-5.4h4.7ZM261.5,401.5v3.8h-4v11.4h-4.7v-11.4h-4v-3.8h12.7Z"/>
  <path d="M260.9,82.3l1.1,1.9-2,1.1c-1,.5-2,.9-3.1,1.1s-2.2.2-3.2,0c-1.1-.2-2.1-.7-3-1.4l1.2-2.3c.8.6,1.6,1,2.5,1.2.8.2,1.7.2,2.5,0s1.5-.4,2.2-.7l2-1.1h-.2v.2ZM261.2,82.8l1.1,1.9-2,1.1c-.6.3-1.2.8-1.7,1.3s-.8,1.1-1,1.9c-.2.7-.3,1.6-.2,2.5l-2.7-.3c-.1-1.1,0-2.1.3-3,.4-.9.9-1.7,1.6-2.4.7-.7,1.6-1.3,2.5-1.8l2-1.1h.1ZM267.2,90.9l1.3,2.4-10.7,5.6-1.3-2.4,10.7-5.6ZM261.7,91.1l1.6,2.7-2,1.1-1.5-2.7,2-1.1h-.1ZM264.8,87.5l1.3,2.3-9.9,5.1-1.3-2.3,9.9-5.1ZM254.2,93.1c.7,1.2,1.1,2.3,1.4,3.3.3,1,.3,1.9,0,2.6-.2.7-.7,1.3-1.4,1.6-.7.4-1.4.4-2.2.2-.8-.2-1.5-.7-2.3-1.5-.8-.7-1.5-1.7-2.2-2.9-.7-1.2-1.1-2.3-1.4-3.3-.3-1-.3-1.9,0-2.6.2-.7.7-1.3,1.4-1.6.7-.4,1.4-.4,2.2-.2.8.2,1.5.7,2.3,1.5s1.5,1.7,2.2,2.9ZM252.3,94.1c-.6-1.1-1.2-1.9-1.8-2.4s-1.1-.6-1.5-.3c-.5.2-.7.7-.6,1.4.1.7.5,1.6,1.1,2.8.4.7.8,1.3,1.2,1.8s.8.8,1.1.9c.4.2.7.2,1,0,.5-.2.6-.7.5-1.4-.1-.7-.5-1.6-1.1-2.7h.1ZM268.5,103.4l1.5,2.6-2,1-1.5-2.6,2-1ZM261,98.8l.7,1.2c.5.8.9,1.5,1.3,2.2.4.6.8,1.2,1.2,1.8.4.6.8,1.1,1.3,1.7l-1.9,1.2c-.5-.6-.9-1.2-1.3-1.8-.4-.6-.8-1.2-1.2-1.9-.4-.7-.8-1.4-1.3-2.3l-.7-1.2,2-1h-.1ZM268.1,95.1l3.7,6.5-2,1-2.3-4.1-5.9,3.1-1.3-2.4,7.9-4.1h-.1ZM265.5,98.6l2.4,4.2-1.9,1-2.4-4.2,1.9-1ZM258.8,102.8l6.7,11.8-5.9,3.1-1.4-2.5,3.9-2-5.3-9.4,2-1h0ZM275.8,106.1l1.3,2.4-11,5.7-1.3-2.4,11-5.7ZM273.6,103l1.3,2.3-10.5,5.4-1.3-2.3,10.5-5.4ZM277.4,114.6l1.2,2-.6.3c-.8.4-1.7.7-2.7.7s-1.9-.2-2.8-.6c-.9-.5-1.8-1.2-2.7-2.3l1.5-2c.7.8,1.4,1.4,2,1.8.7.4,1.3.6,1.9.6s1.2,0,1.6-.3l.6-.3h0ZM277.8,115.3l1.2,2-.6.3c-.5.2-.9.6-1.1,1.1-.3.5-.4,1.1-.4,1.8s.2,1.6.6,2.5h-2.5c-.4-1.1-.6-2.3-.5-3.2,0-1,.4-1.8.9-2.5s1.2-1.3,2-1.7l.6-.3s-.2,0-.2,0ZM276.8,110.8l5.3,9.3-2,1-5.3-9.3,2-1ZM270.1,118.6l1.4,2.5-7.1,3.7-1.4-2.5,7.1-3.7ZM284.3,121l1.4,2.5-17.5,9.1-1.4-2.5s17.5-9.1,17.5-9.1ZM266.3,115.3l1.9-1.3c.6,1,1.2,2.2,1.9,3.4.7,1.2,1.5,2.4,2.3,3.7.8,1.2,1.6,2.4,2.5,3.5l-1.8,1.1c-.9-1.1-1.8-2.3-2.6-3.5s-1.6-2.4-2.3-3.6-1.3-2.3-1.9-3.3h0ZM293.3,136.9l1.3,2.3-17.5,9.1-1.3-2.3,17.5-9.1ZM284,135.1l1.3,2.3-2.2,1.1-1.3-2.3,2.2-1.1ZM291,133.6l1.3,2.3-16.4,8.5-1.3-2.3,16.4-8.5ZM284.2,125.4l4.4,7.8-2,1-4.4-7.8s2-1,2-1ZM272.6,131.4l1.9-1.3c.3.5.6,1.1,1,1.8s.8,1.4,1.3,2.1c.5.7.9,1.5,1.4,2.2s1,1.4,1.4,2l-1.7,1.1c-.7-.8-1.4-1.6-2.1-2.6s-1.3-1.9-1.8-2.9c-.6-.9-1-1.7-1.4-2.4h0ZM283.5,127.1l1.3,2.2-8.8,4.6-1.3-2.2,8.8-4.6h0ZM285.5,130.6l1.3,2.2-8.8,4.6-1.3-2.2,8.8-4.6ZM301.5,151.3l1.4,2.5-17.6,9.1-1.4-2.5,17.6-9.1ZM283.9,146.4l.9,1.5c.6,1,1.1,2,1.7,2.9s1.1,1.7,1.7,2.6c.6.8,1.2,1.6,1.9,2.5l-1.9,1.3c-1-1.3-2-2.5-2.8-3.8s-1.7-2.7-2.6-4.3l-.9-1.5,2.1-1.1h-.1ZM293.8,141.3l4.6,8.1-6.8,3.5-3.2-5.6-3.9,2-1.4-2.5,5.9-3.1,3.2,5.6,2.8-1.4-3.2-5.6,2-1.1h0Z"/>
  <path d="M223.1,103.1c-.8-1.4-1.1-2.8-1-4,.2-1.3.9-2.3,2.1-3l2.2,3.9c-.7.4-.8.9-.5,1.4.1.2.3.3.4.4h.6c.3,0,.4-.4.4-.8s0-1-.2-1.7c-.2-.9-.2-1.7-.3-2.3,0-.6.1-1.2.4-1.9.3-.6.8-1.1,1.6-1.5s1.6-.6,2.3-.5c.8,0,1.5.4,2.2,1,.7.5,1.3,1.2,1.7,2.1.8,1.4,1.1,2.8.9,4-.2,1.2-.9,2.2-2.1,2.8l-2.3-4c.3-.2.5-.4.6-.6,0-.2,0-.5-.1-.7,0-.2-.2-.3-.4-.3h-.5c-.3,0-.4.4-.4.8s0,1,.2,1.7c.1.9.2,1.6.2,2.3s-.1,1.2-.4,1.8c-.3.6-.7,1.1-1.5,1.4-.7.4-1.5.6-2.3.5-.8,0-1.5-.3-2.2-.8s-1.3-1.2-1.9-2.2c0,0,.3.2.3.2ZM231.1,105.8c1-.5,2-.8,2.9-.9.9,0,1.8,0,2.5.5s1.3.9,1.7,1.7c.3.6.5,1.2.5,1.8s-.2,1.1-.5,1.6l1.3-.7,2.1,3.7-9.6,5-2.1-3.7,1.3-.7c-.6,0-1.1-.2-1.6-.5s-.9-.8-1.3-1.4c-.4-.7-.6-1.5-.5-2.3,0-.8.4-1.6.9-2.3.6-.7,1.3-1.3,2.4-1.9h0ZM234.7,112.3c.5-.3.8-.6,1-1,.1-.4,0-.8-.1-1.2-.2-.4-.6-.7-1-.8-.4,0-.9,0-1.4.2-.5.3-.8.6-1,1-.1.4,0,.8.1,1.2.2.4.6.7,1,.8.4,0,.9,0,1.4-.2ZM244.4,116.8c-.4-.6-.5-1.3-.4-1.8.1-.6.5-1,1-1.3s1.1-.3,1.7,0c.6.2,1.1.6,1.4,1.3.4.6.5,1.2.3,1.8-.1.6-.5,1-1,1.3s-1.1.3-1.7,0c-.6-.2-1-.6-1.4-1.3h0ZM244.7,118.9l-9.6,5-2.1-3.7,9.6-5,2.1,3.7ZM249.5,127.1c.6,1.1.7,2.1.3,3.1s-1.2,1.8-2.5,2.5l-5.6,2.9-2.1-3.7,5.1-2.6c.5-.2.7-.5.9-.9.1-.4,0-.8-.1-1.2-.2-.4-.6-.7-1-.8-.4,0-.8,0-1.3.2l-5.1,2.6-2.1-3.7,9.6-5,2.1,3.7-1.5.8c.6,0,1.2.2,1.8.6.6.3,1,.8,1.4,1.5h.1ZM249.2,141.4l-3.2,1.7-.8-1.4c-1.5-2.6-.9-4.6,1.7-5.9l2.5-1.3-.7-1.2,3.2-1.6.7,1.2,2.3-1.2,2.1,3.7-2.3,1.2.9,1.5-3.2,1.6-.9-1.5-2.6,1.3c-.2.1-.4.3-.4.4,0,.2,0,.4.2.6l.5.9ZM258.3,147.9l-3.1,1.6-4.4-7.8,3.1-1.6,4.4,7.8ZM263.4,153.1l-1.5.8,2.1,3.7-2.8,1.5-2.1-3.7-1.7.9,2.4,4.2-3,1.6-4.5-7.9,12.1-6.3,4.5,7.9-3,1.6-2.4-4.2h-.1ZM261,169.6l1.3-2.7h-2.8l-2.3-4.1,6.9.5,2.7-5.7,2.4,4.1-1.3,2.7h2.9l2.3,4.1-6.8-.7-2.7,5.8-2.4-4.1h-.2ZM279.1,179.6l-9.6,5-2.1-3.7,1.5-.8c-.6,0-1.2-.3-1.8-.6s-1-.8-1.4-1.5c-.6-1.1-.7-2.1-.3-3.1s1.2-1.8,2.5-2.5l5.6-2.9,2.1,3.7-5.1,2.6c-.5.2-.8.5-.9.9s0,.8.2,1.2.5.7.9.8c.4,0,.8,0,1.3-.2l5.1-2.6,2.1,3.7h-.1ZM280.9,185.6c.6,0,1.1.2,1.6.5s.9.8,1.3,1.4c.4.7.6,1.5.5,2.3,0,.8-.4,1.5-.9,2.3-.5.7-1.3,1.4-2.3,1.9s-2,.8-2.9.9c-.9,0-1.8-.1-2.5-.5s-1.3-1-1.7-1.7c-.3-.6-.5-1.2-.5-1.8s.2-1.1.5-1.6l-5.9,3.1-2.1-3.7,14.2-7.4,2.1,3.7-1.3.7h-.1ZM278.9,190.1c.5-.3.8-.6,1-1,.1-.4,0-.8-.1-1.2-.2-.4-.6-.7-1-.8s-.9,0-1.4.2c-.5.3-.8.6-1,1-.1.4,0,.8.1,1.2.2.4.6.7,1,.8s.9,0,1.4-.2ZM287,204.1c-.3.1-.5.2-.8.3l-3.4-6c-.8.5-1,1-.7,1.7.2.4.6.6,1.1.6l2.2,3.9c-.8.2-1.5.3-2.3.1-.8-.1-1.5-.5-2.2-1s-1.2-1.1-1.7-1.9c-.5-.9-.8-1.9-.8-2.8s.2-1.8.7-2.6,1.3-1.4,2.3-2,2-.8,2.9-.8,1.9.3,2.7.8c.8.5,1.5,1.3,2,2.2s.8,1.9.8,2.8-.2,1.8-.7,2.6-1.2,1.4-2.2,2h.1ZM285.8,199.9c.3-.2.5-.4.5-.7s0-.6-.2-.9c-.4-.7-.9-.9-1.6-.6l1.3,2.2h0ZM292.6,197.8l-4.1-3.5,2.5-1.3,4.3,3.4-2.8,1.5h.1ZM292.7,207.6c.8,0,1.5.3,2.1.7.7.4,1.1.8,1.5,1.4l-4,2.1-.6-1.1c-.4-.7-.8-1.2-1.3-1.4-.4-.2-1-.1-1.6.2l-3.9,2-2.1-3.7,9.6-5,2.1,3.7-1.8.9v.2h0ZM302.8,221.3l-17.6,1.3-2.3-4.1,6.4-.3,6.9-8.7,2.3,4.1-3.9,4.3,5.8-.9,2.3,4.1v.2h.1Z"/>
  <text class="st2" transform="translate(115.6 365.7)"><tspan x="0" y="0">인간의 대지</tspan></text>
</svg>