<?xml version="1.0" encoding="UTF-8"?>
<svg id="_레이어_1" xmlns="http://www.w3.org/2000/svg" version="1.1" viewBox="0 0 605 288">
  <!-- Generator: Adobe Illustrator 29.0.1, SVG Export Plug-In . SVG Version: 2.1.0 Build 192)  -->
  <defs>
    <style>
      .st0 {
        fill: #f04325;
      }

      .st1 {
        stroke: #040000;
        stroke-miterlimit: 10;
        stroke-width: .5px;
      }

      .st2 {
        fill: none;
        stroke: #fff;
        stroke-linejoin: round;
        stroke-width: 13px;
      }
    </style>
  </defs>
  <g>
    <path class="st0" d="M408,6.6L9,141.3l399.1,134.3v-108.1h188.5v-52.8h-188.6V6.6h0Z"/>
    <path class="st2" d="M408,6.6L9,141.3l399.1,134.3v-108.1h188.5v-52.8h-188.6V6.6h0Z"/>
  </g>
  <path d="M137.8,147.6l-4.3,14.5-4.5-1.3,1.7-5.6-4.3-1.3-1.7,5.6-4.5-1.3,4.3-14.5,4.5,1.3-1.5,5.2,4.3,1.3,1.5-5.2,4.5,1.3ZM153.8,152.3l-8.2,8.5-1.3,4.4-4.5-1.3,1.3-4.4-2.2-11.6,5.2,1.5.8,5.8,3.8-4.4,5.1,1.5h0ZM159.4,154l-4.3,14.5-4.5-1.3,4.3-14.5,4.5,1.3ZM175,158.6l-2.8,9.3c-.5,1.7-1.4,2.9-2.5,3.5-1.2.6-2.6.7-4.2.2-1.8-.5-3-1.4-3.8-2.7s-.9-2.8-.3-4.7l4.5,1.3c-.2.6-.2,1,0,1.3.1.3.3.5.7.6h.7c.2-.1.4-.4.5-.9l2.8-9.3,4.5,1.3h0ZM181.4,160.5l-2.4,8.2c-.2.7-.2,1.2,0,1.7s.6.8,1.3,1,1.2.1,1.6-.1c.4-.3.7-.8.9-1.5l2.4-8.2,4.5,1.3-2.4,8.2c-.4,1.4-1,2.5-1.9,3.3s-1.9,1.3-3,1.5-2.3.1-3.5-.2c-1.2-.4-2.2-.9-3.1-1.7-.8-.8-1.3-1.7-1.6-2.8-.2-1.1-.2-2.4.2-3.8l2.4-8.2,4.5,1.3h.1ZM196.4,176.9l4.4,1.3-1,3.4-8.9-2.6,4.3-14.5,4.5,1.3-3.3,11h0ZM208.9,172.6l-.5,1.8,4.5,1.3-1,3.4-4.5-1.3-.6,2,5.1,1.5-1.1,3.6-9.6-2.9,4.3-14.5,9.7,2.9-1.1,3.6-5.1-1.5h0Z"/>
  <path d="M279.2,191.3l-4.5,14.9-4.7-1.4,2.3-7.4-4.5,6.7-4-1.2v-8.1l-2.3,7.4-4.7-1.4,4.5-14.9,5.7,1.7.6,9.9,5.9-8,5.7,1.7h0ZM295.6,196.3l-8.5,8.8-1.4,4.5-4.7-1.4,1.4-4.5-2.2-12,5.3,1.6.8,6,4-4.6,5.3,1.6h0ZM306,213.2l-5-1.5-1.4,2-4.9-1.5,10-13.3,5.4,1.6.9,16.6-4.9-1.5v-2.5h-.1ZM305.9,209.3v-4.6l-2.7,3.7,2.7.8h0ZM326.3,221.8l-4.7-1.4-2.7-9-2.3,7.5-4.7-1.4,4.5-14.9,4.7,1.4,2.6,9.1,2.3-7.6,4.7,1.4-4.5,14.9h.1ZM340.5,215.4c0-.4-.3-.7-.6-.9-.3-.3-.7-.5-1.1-.6-.9-.3-1.7-.2-2.4.3-.7.4-1.2,1.1-1.5,2.2-.4,1.2-.3,2.1,0,2.9.4.7,1.1,1.3,2.3,1.6,1.1.3,2.1.2,3-.5l-3.7-1.1,1-3.3,7.6,2.3-1.4,4.7c-1,.9-2.2,1.6-3.5,2.1-1.4.4-2.9.4-4.7-.1-1.5-.5-2.8-1.2-3.8-2.2-.9-1-1.5-2.2-1.8-3.5s-.2-2.7.3-4.2c.4-1.5,1.1-2.7,2.1-3.7s2.1-1.6,3.4-1.9c1.3-.3,2.8-.2,4.3.2,2,.6,3.4,1.5,4.3,2.9,1,1.3,1.3,2.8,1,4.5l-4.9-1.5v-.2ZM352.3,217.5l-.6,1.8,4.6,1.4-1.1,3.5-4.6-1.4-.6,2.1,5.3,1.6-1.1,3.7-9.9-3,4.5-14.9,9.9,3-1.1,3.7-5.3-1.6h0ZM361.7,228.7l4.5,1.4-1.1,3.5-9.2-2.8,4.5-14.9,4.7,1.4-3.4,11.4h0Z"/>
  <path d="M160.2,113.1h3v20.9h-3v-20.9ZM152,114.6c1.1,0,2,.3,2.8.9s1.5,1.5,1.9,2.6c.5,1.1.7,2.4.7,3.9s-.2,2.9-.7,4-1.1,2-1.9,2.6c-.8.6-1.8.9-2.8.9s-2-.3-2.8-.9c-.8-.6-1.5-1.5-2-2.6s-.7-2.5-.7-4,.2-2.8.7-3.9,1.1-2,2-2.6c.8-.6,1.8-.9,2.8-.9ZM152,117.3c-.5,0-1,.2-1.3.5-.4.4-.7.9-.9,1.6s-.3,1.6-.3,2.6.1,1.9.3,2.6.5,1.2.9,1.6.8.5,1.3.5,1-.2,1.4-.5c.4-.4.7-.9.9-1.6s.3-1.6.3-2.6-.1-1.9-.3-2.6-.5-1.2-.9-1.6-.8-.5-1.4-.5ZM178.7,113.2h3v20.8h-3v-20.8ZM164.8,130.4l-.4-2.4h4.1c1.5,0,3,0,4.6,0,1.6,0,3.1-.2,4.5-.4l.2,2.2c-1.5.3-3.1.5-4.6.6s-3,.2-4.5.2h-4,0ZM164.9,115.7h12.6v2.4h-12.6v-2.4ZM171.1,118.8c1,0,1.9.2,2.7.5s1.4.8,1.8,1.4c.4.6.7,1.3.7,2.1s-.2,1.5-.7,2.1-1,1-1.8,1.4c-.8.3-1.6.5-2.7.5s-1.9-.2-2.7-.5-1.4-.8-1.8-1.4-.7-1.3-.7-2.1.2-1.5.7-2.1c.4-.6,1-1.1,1.8-1.4s1.7-.5,2.7-.5ZM171.1,121.1c-.4,0-.8,0-1.2.2-.3,0-.6.3-.8.6-.2.2-.3.5-.3.9s0,.7.3.9c.2.3.5.5.8.6s.7.2,1.2.2.9,0,1.2-.2c.3,0,.6-.3.8-.6.2-.3.3-.6.3-.9s0-.7-.3-.9c-.2-.2-.5-.4-.8-.6-.3,0-.7-.2-1.2-.2ZM169.6,113.4h3v3.8h-3v-3.8ZM190.5,115.5h2.6v.6c0,.7-.1,1.4-.4,2.1-.2.7-.6,1.3-1,1.9-.5.6-1,1.1-1.7,1.6-.7.4-1.4.8-2.3,1.1-.9.3-1.8.5-2.9.7l-1.1-2.3c.9,0,1.8-.3,2.5-.5.7-.3,1.4-.5,1.9-.9.5-.3,1-.7,1.4-1.1s.6-.8.8-1.2c.2-.4.3-.9.3-1.3v-.6h-.1ZM191.4,115.5h2.6v.6c0,.4,0,.8.2,1.3.2.4.4.8.8,1.2.4.4.8.8,1.4,1.1s1.2.6,1.9.9c.7.2,1.5.4,2.5.5l-1.1,2.3c-1.1,0-2-.4-2.9-.7-.9-.3-1.6-.7-2.3-1.1-.7-.5-1.2-1-1.7-1.6-.4-.6-.8-1.2-1-1.9-.2-.7-.3-1.4-.3-2.1v-.6h0ZM190.7,126.4h3v7.6h-3v-7.6ZM182.8,124.6h18.8v2.4h-18.8v-2.4ZM184.5,114.2h15.5v2.4h-15.5v-2.4Z"/>
  <path class="st1" d="M267.1,132.7h5.2v3.6h-5.2v-3.6ZM264,121.3h4.3v29.9h-4.3v-29.9ZM245.8,124.1h4.3v18.6h-4.3v-18.6ZM245.7,140.3h2.5c2.1,0,4.4,0,6.7-.2,2.3-.2,4.7-.5,7.1-.9l.4,3.4c-2.5.5-4.9.8-7.3,1-2.4.2-4.7.2-6.9.2h-2.5v-3.6h0ZM282.3,123.4c1.6,0,2.9.3,4.2.9s2.2,1.5,2.9,2.6c.7,1.1,1,2.4,1,3.8s-.3,2.7-1,3.8c-.7,1.1-1.7,2-2.9,2.6-1.3.6-2.6.9-4.2.9s-2.9-.3-4.2-.9c-1.3-.6-2.2-1.5-2.9-2.6-.7-1.1-1-2.4-1-3.8s.3-2.7,1-3.8c.7-1.1,1.8-2,2.9-2.6,1.3-.6,2.6-.9,4.2-.9ZM282.2,127c-.7,0-1.5.1-2.1.4s-1,.7-1.5,1.3c-.3.5-.5,1.1-.5,2s.2,1.5.5,2,.8.9,1.5,1.3,1.4.4,2.1.4,1.5-.1,2-.4c.6-.3,1-.7,1.5-1.3s.5-1.3.5-2-.2-1.5-.5-2-.8-.9-1.5-1.3c-.6-.3-1.3-.4-2-.4ZM293.3,121.4h4.3v30h-4.3v-30ZM273.2,145.2l-.5-3.4h5.7c2.1,0,4.3-.1,6.6-.2,2.3-.1,4.4-.3,6.6-.6l.3,3.1c-2.2.4-4.3.7-6.6.9-2.2.2-4.4.3-6.4.3h-5.7,0ZM310.6,127.3h3.6v1.1c0,1.8-.3,3.6-.9,5.1s-1.6,3-2.7,4.2c-1.3,1.1-2.8,2.1-4.7,2.7l-2.1-3.3c1.6-.5,2.9-1.3,4-2.1,1-.9,1.8-2,2.3-3.1s.7-2.3.7-3.6v-1.1h-.1ZM311.3,127.3h3.4v1.1c0,1.1.2,2.2.7,3.3.5,1,1.3,2.1,2.3,2.9s2.3,1.6,4,2l-2.1,3.3c-1.9-.5-3.4-1.5-4.7-2.6s-2.2-2.5-2.7-4.1c-.6-1.6-.9-3.2-.9-5v-1.1h0ZM304.6,125h16.1v3.4h-16.1v-3.4ZM310.6,121.7h4.3v4.6h-4.3v-4.6ZM319.8,130.2h6.9v3.6h-6.9v-3.6ZM324.6,121.5h4.3v22h-4.3v-22ZM309,147.4h20.4v3.6h-20.4v-3.6ZM309.1,141.8h4.3v7.9h-4.3v-7.9ZM338.3,123.9h3.4v4.3c0,1.9-.2,3.7-.5,5.4-.3,1.8-.8,3.3-1.6,4.9-.6,1.5-1.6,2.8-2.5,4.1-1,1.1-2.3,2.1-3.7,2.7l-2.6-3.4c1.3-.6,2.4-1.4,3.2-2.3.9-.9,1.7-2.1,2.3-3.2.6-1.3,1-2.5,1.4-3.9s.4-2.7.4-4.2v-4.3h.1ZM339.1,123.9h3.4v4.3c0,1.4.1,2.7.4,4,.3,1.4.7,2.6,1.3,3.8.6,1.1,1.3,2.2,2.2,3.1.8.9,1.9,1.7,3.1,2.3l-2.6,3.4c-1.4-.7-2.5-1.6-3.4-2.7s-1.8-2.4-2.4-3.9c-.6-1.5-1-3-1.4-4.7s-.4-3.4-.4-5.2v-4.3h-.2ZM350.7,121.6h4.3v29.9h-4.3v-29.9ZM354.1,133.1h5.2v3.6h-5.2v-3.6Z"/>
</svg>