<?xml version="1.0" encoding="UTF-8"?>
<svg id="_레이어_1" data-name="레이어_1" xmlns="http://www.w3.org/2000/svg" version="1.1" viewBox="0 0 374 415">
  <!-- Generator: Adobe Illustrator 29.0.0, SVG Export Plug-In . SVG Version: 2.1.0 Build 186)  -->
  <defs>
    <style>
      .st0 {
        fill: #f04325;
      }

      .st1 {
        fill: none;
        stroke: #fff;
        stroke-width: 11px;
      }
    </style>
  </defs>
  <g>
    <path class="st0" d="M245.2,206.5h78.3c11.5,0,17.8-12.1,10.5-20.1L196.4,36.9c-5.4-5.9-15.5-5.9-20.9,0L38,186.3c-7.4,8-1.1,20.1,10.5,20.1h78.3c10.4,0,18.9,7.6,18.9,17s-8.4,17-18.9,17H57.6c-9.7,0-17.6,7.2-17.6,15.9v95.8c0,8.8,7.9,15.9,17.6,15.9h256.8c9.7,0,17.6-7.2,17.6-15.9v-95.8c0-8.8-7.9-15.9-17.6-15.9h-69.2c-10.4,0-18.9-7.6-18.9-17s8.4-17,18.9-17Z"/>
    <path class="st1" d="M245.2,206.5h78.3c11.5,0,17.8-12.1,10.5-20.1L196.4,36.9c-5.4-5.9-15.5-5.9-20.9,0L38,186.3c-7.4,8-1.1,20.1,10.5,20.1h78.3c10.4,0,18.9,7.6,18.9,17s-8.4,17-18.9,17H57.6c-9.7,0-17.6,7.2-17.6,15.9v95.8c0,8.8,7.9,15.9,17.6,15.9h256.8c9.7,0,17.6-7.2,17.6-15.9v-95.8c0-8.8-7.9-15.9-17.6-15.9h-69.2c-10.4,0-18.9-7.6-18.9-17s8.4-17,18.9-17Z"/>
  </g>
  <path d="M123.3,146.3l-6.6,10.9-4.8-1.1-1.3-12.7,3.9.9.6,8.7,4.3-7.6,3.9.9ZM125.6,148.6c-.6-.1-1.1-.4-1.4-.9-.3-.4-.4-.9-.3-1.4.1-.5.4-.9.9-1.2.5-.3,1-.3,1.7-.2.6.1,1.1.4,1.4.9.3.4.4.9.3,1.4-.1.5-.4.9-.9,1.2-.5.3-1,.3-1.7.2ZM127.2,149.7l-2.1,9.4-3.7-.8,2.1-9.4,3.7.8ZM132.2,152.7c.5-.5,1.1-.8,1.7-1,.6-.2,1.2-.2,1.8-.1l-.9,4-1.1-.2c-.7-.2-1.2-.2-1.6,0-.4.2-.6.6-.8,1.2l-.9,3.9-3.7-.8,2.1-9.4,3.7.8-.4,1.7ZM140.1,152.5c.6.1,1.1.4,1.5.7.4.3.7.8.8,1.2l.3-1.3,3.7.8-2.1,9.2c-.2.9-.5,1.6-1,2.3-.5.6-1.1,1.1-2,1.4-.8.3-1.8.3-2.9,0-1.5-.3-2.6-1-3.4-1.9-.7-.9-1-2-.9-3.2l3.6.8c0,.5.3.8,1,1,.4,0,.8,0,1.1-.1s.5-.6.6-1.2l.3-1.1c-.3.4-.7.6-1.3.8-.5.1-1.1.1-1.7,0-.7-.2-1.4-.5-1.9-1-.5-.5-.8-1.2-1-2-.2-.8-.1-1.7,0-2.7.2-1,.6-1.8,1.1-2.5.5-.7,1.1-1.1,1.8-1.4.7-.3,1.4-.3,2.1-.1ZM141.6,157.9c.1-.5,0-.9-.1-1.3-.2-.3-.5-.5-.9-.6-.4,0-.8,0-1.1.2s-.5.6-.6,1.1c-.1.5,0,.9.1,1.3.2.3.5.5.9.6.4,0,.8,0,1.1-.2.3-.2.5-.6.6-1.1ZM150.1,154.1c-.6-.1-1.1-.4-1.4-.9-.3-.4-.4-.9-.3-1.4.1-.5.4-.9.9-1.2.5-.3,1-.3,1.7-.2.6.1,1.1.4,1.4.9.3.4.4.9.3,1.5-.1.5-.4.9-.9,1.2-.5.3-1,.3-1.7.2ZM151.8,155.2l-2.1,9.4-3.7-.8,2.1-9.4,3.7.8ZM160,157c1.1.2,1.8.8,2.3,1.7.4.9.5,1.9.3,3.1l-1.2,5.5-3.7-.8,1.1-5c.1-.4,0-.8-.1-1.1-.2-.3-.5-.5-.9-.6-.4,0-.8,0-1.1.2-.3.2-.5.5-.6,1l-1.1,5-3.7-.8,2.1-9.4,3.7.8-.3,1.4c.4-.4.9-.7,1.4-.8.6-.2,1.2-.2,1.8,0ZM167.1,157.9c-.6-.1-1.1-.4-1.4-.9-.3-.4-.4-.9-.3-1.4.1-.5.4-.9.9-1.2.5-.3,1-.3,1.7-.2.6.1,1.1.4,1.4.9.3.4.4.9.3,1.5-.1.5-.4.9-.9,1.2-.5.3-1,.3-1.7.2ZM168.8,159.1l-2.1,9.4-3.7-.8,2.1-9.4,3.7.8ZM168.9,164c.2-1,.6-1.8,1.1-2.5.5-.7,1.1-1.1,1.8-1.4.7-.3,1.4-.3,2.1-.1.6.1,1.1.4,1.5.7.4.3.7.8.8,1.2l.3-1.3,3.7.8-2.1,9.4-3.7-.8.3-1.3c-.3.4-.7.6-1.3.8-.5.1-1.1.1-1.7,0-.7-.2-1.4-.5-1.9-1-.5-.5-.8-1.2-1-2-.2-.8-.1-1.7,0-2.7ZM175.4,165.5c.1-.5,0-.9-.1-1.3-.2-.3-.5-.5-.9-.6-.4,0-.8,0-1.1.2-.3.2-.5.6-.6,1.1-.1.5,0,.9.1,1.3.2.3.5.5.9.6s.8,0,1.1-.2.5-.6.6-1.1ZM202.2,164.1l-5.4,11.2-4.6-1v-7c.1,0-2.7,6.4-2.7,6.4l-4.6-1v-12.4s3.9.9,3.9.9l-.6,7.7,3.3-7.1,4,.9v7.8c0,0,2.7-7.2,2.7-7.2l4,.9ZM205.3,177.3c-.9-.2-1.8-.6-2.4-1.2-.7-.6-1.1-1.2-1.4-2.1-.3-.8-.3-1.7,0-2.7.2-1,.6-1.8,1.2-2.4.6-.6,1.3-1.1,2.2-1.3.8-.2,1.7-.2,2.7,0,.9.2,1.8.6,2.4,1.2.7.6,1.1,1.3,1.4,2.1.3.8.3,1.7,0,2.7-.2,1-.6,1.8-1.2,2.4-.6.6-1.3,1.1-2.1,1.3-.8.2-1.7.2-2.7,0ZM206,174.1c.3,0,.7,0,1-.2.3-.2.5-.6.6-1.1.1-.5,0-1,0-1.3-.2-.3-.4-.5-.8-.6-.3,0-.7,0-1,.2-.3.2-.5.6-.6,1.1-.1.5-.1,1,0,1.3.2.3.4.5.8.6ZM215.9,179.7c-.9-.2-1.8-.6-2.4-1.2-.7-.6-1.1-1.3-1.4-2.1-.3-.8-.3-1.7,0-2.7.2-1,.6-1.8,1.2-2.4.6-.6,1.3-1.1,2.2-1.3.8-.2,1.7-.2,2.7,0s1.8.6,2.4,1.2c.7.6,1.1,1.3,1.4,2.1.3.8.3,1.7,0,2.7-.2,1-.6,1.8-1.2,2.4-.6.6-1.3,1.1-2.1,1.3-.8.2-1.7.2-2.7,0ZM216.6,176.5c.3,0,.7,0,1-.2.3-.2.5-.6.6-1.1.1-.5,0-1,0-1.3-.2-.3-.4-.5-.8-.6-.3,0-.7,0-1,.2-.3.2-.5.6-.6,1.1-.1.5-.1,1,0,1.3.2.3.4.5.8.6ZM228.6,169.5l-2.8,12.3-3.7-.8,2.8-12.3,3.7.8ZM235.1,173.3c-.2,0-.3-.1-.4-.1-.3,0-.5,0-.7,0-.2,0-.3.2-.4.5l1.4.3-.7,3.1-1.4-.3-1.4,6.3-3.7-.8,1.4-6.3-1-.2.7-3.1,1,.2c.3-1.2.9-2.1,1.8-2.6.9-.5,2-.6,3.4-.3.2,0,.4.1.8.2l-.7,3.2Z"/>
  <path d="M90.1,341.4h-4.5l-.7,2h-4.4l4.9-13.5h4.9l4.9,13.5h-4.4l-.7-2ZM89,338.2l-1.2-3.7-1.2,3.7h2.4ZM106.1,343.4l-2.5-4.8h0v4.8h-4.2v-13.5h6.3c1.1,0,2,.2,2.8.6.8.4,1.3.9,1.7,1.6.4.7.6,1.4.6,2.2s-.3,1.7-.8,2.4c-.5.7-1.2,1.2-2.1,1.5l2.9,5.2h-4.6ZM103.6,335.8h1.7c.4,0,.7,0,.9-.3.2-.2.3-.5.3-.9s-.1-.6-.3-.8c-.2-.2-.5-.3-.9-.3h-1.7v2.3ZM118.7,343.6c-1.3,0-2.4-.3-3.5-.9-1.1-.6-1.9-1.4-2.5-2.5-.6-1.1-.9-2.2-.9-3.6s.3-2.5.9-3.6c.6-1.1,1.5-1.9,2.5-2.5,1.1-.6,2.2-.9,3.5-.9s2.4.3,3.5.9c1.1.6,1.9,1.4,2.5,2.5.6,1.1.9,2.2.9,3.6s-.3,2.5-.9,3.6c-.6,1.1-1.4,1.9-2.5,2.5-1.1.6-2.2.9-3.5.9ZM118.7,339.6c.8,0,1.5-.3,1.9-.8.5-.5.7-1.3.7-2.2s-.2-1.7-.7-2.2c-.5-.5-1.1-.8-1.9-.8s-1.5.3-2,.8c-.5.5-.7,1.3-.7,2.2s.2,1.6.7,2.2c.5.5,1.1.8,2,.8ZM133.6,343.6c-1.3,0-2.4-.3-3.5-.9-1.1-.6-1.9-1.4-2.5-2.5-.6-1.1-.9-2.2-.9-3.6s.3-2.5.9-3.6c.6-1.1,1.5-1.9,2.5-2.5,1.1-.6,2.2-.9,3.5-.9s2.4.3,3.5.9c1.1.6,1.9,1.4,2.5,2.5.6,1.1.9,2.2.9,3.6s-.3,2.5-.9,3.6c-.6,1.1-1.4,1.9-2.5,2.5-1.1.6-2.2.9-3.5.9ZM133.6,339.6c.8,0,1.5-.3,1.9-.8.5-.5.7-1.3.7-2.2s-.2-1.7-.7-2.2c-.5-.5-1.1-.8-1.9-.8s-1.5.3-2,.8c-.5.5-.7,1.3-.7,2.2s.2,1.6.7,2.2c.5.5,1.1.8,2,.8ZM158.2,330v13.5h-4.2v-6.7l-2.1,6.7h-3.6l-2.1-6.7v6.7h-4.2v-13.5h5.2l3,8.1,2.9-8.1h5.2ZM169.9,343.6c-1.3,0-2.4-.3-3.5-.9-1.1-.6-1.9-1.4-2.5-2.5-.6-1.1-.9-2.2-.9-3.6s.3-2.5.9-3.6c.6-1.1,1.5-1.9,2.5-2.5,1.1-.6,2.2-.9,3.5-.9s2.4.3,3.5.9c1.1.6,1.9,1.4,2.5,2.5.6,1.1.9,2.2.9,3.6s-.3,2.5-.9,3.6c-.6,1.1-1.4,1.9-2.5,2.5-1.1.6-2.2.9-3.5.9ZM169.9,339.6c.8,0,1.5-.3,1.9-.8.5-.5.7-1.3.7-2.2s-.2-1.7-.7-2.2c-.5-.5-1.1-.8-1.9-.8s-1.5.3-2,.8c-.5.5-.7,1.3-.7,2.2s.2,1.6.7,2.2c.5.5,1.1.8,2,.8ZM187.8,330v3.3h-5.3v1.9h3.8v3.2h-3.8v5.1h-4.2v-13.5h9.5ZM199.1,343.6c-1.3,0-2.4-.3-3.5-.9-1.1-.6-1.9-1.4-2.5-2.5-.6-1.1-.9-2.2-.9-3.6s.3-2.5.9-3.6c.6-1.1,1.5-1.9,2.5-2.5,1.1-.6,2.2-.9,3.5-.9s2.4.3,3.5.9c1.1.6,1.9,1.4,2.5,2.5.6,1.1.9,2.2.9,3.6s-.3,2.5-.9,3.6c-.6,1.1-1.4,1.9-2.5,2.5-1.1.6-2.2.9-3.5.9ZM199.1,339.6c.8,0,1.5-.3,1.9-.8.5-.5.7-1.3.7-2.2s-.2-1.7-.7-2.2c-.5-.5-1.1-.8-1.9-.8s-1.5.3-2,.8c-.5.5-.7,1.3-.7,2.2s.2,1.6.7,2.2c.5.5,1.1.8,2,.8ZM220.4,343.4h-4.2l-4.5-6.8v6.8h-4.2v-13.5h4.2l4.5,6.9v-6.9h4.2v13.5ZM226.5,333.3v1.7h4.2v3.2h-4.2v1.9h4.8v3.4h-9v-13.5h9v3.4h-4.8ZM238.1,343.6c-1.6,0-2.9-.4-4-1.1-1-.8-1.6-1.9-1.7-3.3h4.5c0,.8.4,1.2,1,1.2s.4,0,.6-.2c.2-.1.2-.3.2-.5s-.2-.6-.5-.8c-.3-.2-.9-.4-1.6-.7-.9-.3-1.6-.6-2.1-.9-.6-.3-1-.7-1.4-1.3-.4-.6-.6-1.3-.6-2.1,0-.9.2-1.6.7-2.2.5-.6,1.1-1.1,1.8-1.4.8-.3,1.7-.5,2.6-.5,1.6,0,3,.4,3.9,1.1,1,.8,1.5,1.8,1.5,3.2h-4.5c0-.4-.1-.7-.3-.8-.2-.2-.4-.2-.6-.2s-.3,0-.4.2c-.1.1-.2.3-.2.5,0,.3.2.6.5.8.3.2.9.4,1.6.7.8.3,1.5.6,2.1.9.6.3,1,.7,1.4,1.2.4.5.6,1.2.6,2s-.2,1.6-.6,2.2c-.4.6-1,1.2-1.8,1.5-.8.4-1.7.6-2.8.6ZM254.5,343.6c-1.3,0-2.4-.3-3.5-.9-1.1-.6-1.9-1.4-2.5-2.5-.6-1.1-.9-2.2-.9-3.6s.3-2.5.9-3.6c.6-1.1,1.5-1.9,2.5-2.5,1.1-.6,2.2-.9,3.5-.9s2.4.3,3.5.9c1.1.6,1.9,1.4,2.5,2.5.6,1.1.9,2.2.9,3.6s-.3,2.5-.9,3.6c-.6,1.1-1.4,1.9-2.5,2.5-1.1.6-2.2.9-3.5.9ZM254.5,339.6c.8,0,1.5-.3,1.9-.8.5-.5.7-1.3.7-2.2s-.2-1.7-.7-2.2c-.5-.5-1.1-.8-1.9-.8s-1.5.3-2,.8c-.5.5-.7,1.3-.7,2.2s.2,1.6.7,2.2c.5.5,1.1.8,2,.8ZM282.3,330l-3.1,13.5h-5.2l-1.6-7.6-1.6,7.6h-5.2l-3.1-13.5h4.5l1.2,8.5,1.8-8.5h4.6l1.8,8.5,1.2-8.5h4.5ZM296.7,343.4h-4.2l-4.5-6.8v6.8h-4.2v-13.5h4.2l4.5,6.9v-6.9h4.2v13.5Z"/>
  <path d="M140.9,121.4h2.5s0,17.7,0,17.7h-2.5s0-17.7,0-17.7ZM136.9,127.6h4.7s0,2,0,2h-4.7s0-2,0-2ZM129.3,122.7h2.5s0,4.3,0,4.3h3.5s0-4.3,0-4.3h2.5s0,12.1,0,12.1h-8.5s0-12.1,0-12.1ZM131.8,129v3.9s3.5,0,3.5,0v-3.9s-3.5,0-3.5,0ZM148.5,124.2h2s0,2,0,2c0,1-.1,2-.3,3-.2,1-.5,1.9-.9,2.8-.4.8-.9,1.6-1.5,2.3-.6.6-1.3,1.2-2.2,1.5l-1.4-2c.7-.3,1.4-.8,1.9-1.3.6-.5,1-1.2,1.4-1.8.4-.7.6-1.4.8-2.1.2-.8.3-1.5.3-2.2v-2ZM149,124.2h2s0,2,0,2c0,.7,0,1.4.3,2.1.2.7.5,1.4.8,2,.4.6.8,1.2,1.3,1.7s1.2.9,1.9,1.2l-1.4,2c-.8-.4-1.6-.9-2.2-1.5-.6-.6-1.1-1.3-1.6-2.2-.4-.8-.7-1.7-.9-2.6-.2-.9-.3-1.9-.3-2.9v-2ZM144.8,123.1h9.9s0,2.1,0,2.1h-9.9s0-2.1,0-2.1ZM156.3,121.4h2.5s0,17.6,0,17.6h-2.5s0-17.6,0-17.6ZM172,121.5h2.5s0,17.6,0,17.6h-2.5s0-17.6,0-17.6ZM160.7,123.1h2.5s0,11,0,11h-2.5s0-11,0-11ZM160.7,132.6h1.6c1.3,0,2.6,0,4-.1,1.4-.1,2.8-.3,4.3-.6l.3,2.1c-1.5.3-3,.5-4.4.6-1.4,0-2.8.1-4.2.1h-1.6s0-2.2,0-2.2ZM180.1,122.7c.9,0,1.7.3,2.4.8.7.5,1.2,1.2,1.6,2.2.4.9.6,2,.6,3.3,0,1.3-.2,2.4-.6,3.4-.4.9-.9,1.7-1.6,2.2-.7.5-1.5.8-2.4.8-.9,0-1.7-.3-2.4-.8-.7-.5-1.2-1.3-1.6-2.2-.4-1-.6-2.1-.6-3.4,0-1.3.2-2.4.6-3.3.4-.9,1-1.7,1.7-2.2.7-.5,1.5-.8,2.4-.8ZM180.1,125c-.4,0-.8.2-1.2.5-.3.3-.6.8-.8,1.3-.2.6-.3,1.3-.3,2.2,0,.9,0,1.6.3,2.2.2.6.4,1,.8,1.4.3.3.7.5,1.2.5.4,0,.8-.2,1.1-.5.3-.3.6-.8.8-1.3.2-.6.3-1.3.3-2.2,0-.9,0-1.6-.3-2.2-.2-.6-.4-1-.8-1.4-.3-.3-.7-.5-1.1-.5ZM186.7,121.5h2.5s0,17.6,0,17.6h-2.5s0-17.6,0-17.6ZM188.6,128.1h3.1s0,2.1,0,2.1h-3.1s0-2.1,0-2.1ZM200.3,129.9h2.5s0,2.5,0,2.5h-2.5s0-2.5,0-2.5ZM201.6,121.7c2,0,3.6.3,4.7.8,1.1.5,1.7,1.3,1.7,2.2,0,1-.6,1.7-1.7,2.2-1.1.5-2.7.8-4.7.8-2,0-3.6-.3-4.7-.8-1.1-.5-1.7-1.3-1.7-2.2,0-1,.6-1.7,1.7-2.2,1.1-.5,2.7-.8,4.7-.8ZM201.6,123.5c-.8,0-1.5,0-2.1.1-.6,0-1,.2-1.3.4-.3.2-.4.4-.4.6,0,.3.1.5.4.7.3.2.7.3,1.3.4.6,0,1.3.1,2.1.1.8,0,1.6,0,2.1-.1.6,0,1-.2,1.2-.4.3-.2.4-.4.4-.7,0-.3-.1-.5-.4-.6-.3-.2-.7-.3-1.2-.4-.6,0-1.3-.1-2.1-.1ZM193.6,128.4h15.9s0,2,0,2h-15.9s0-2,0-2ZM195.4,131.6h12.2s0,4.5,0,4.5h-9.6s0,1.5,0,1.5h-2.5s0-3.3,0-3.3h9.7s0-.9,0-.9h-9.7s0-1.9,0-1.9ZM195.5,137.1h12.6s0,1.9,0,1.9h-12.6s0-1.9,0-1.9ZM209.2,135.1h15.9s0,2.1,0,2.1h-15.9s0-2.1,0-2.1ZM210.5,123.1h13.4s0,2.1,0,2.1h-13.4s0-2.1,0-2.1ZM210.5,130.4h13.3s0,2,0,2h-13.3s0-2,0-2ZM212.8,124.9h2.5s0,5.6,0,5.6h-2.5s0-5.6,0-5.6ZM218.9,125h2.5s0,5.6,0,5.6h-2.5s0-5.6,0-5.6Z"/>
</svg>